<svg width="49" height="15" viewBox="0 0 49 15" fill="none" xmlns="http://www.w3.org/2000/svg">
<path d="M8.28313 0.799999H9.45113V12H8.28313V0.799999ZM1.27513 12H0.0911251V0.799999H1.27513V12ZM8.39513 6.832H1.14713V5.792H8.39513V6.832ZM18.1758 12V10.144L18.1278 9.84V6.736C18.1278 6.02133 17.9251 5.472 17.5198 5.088C17.1251 4.704 16.5331 4.512 15.7438 4.512C15.1998 4.512 14.6824 4.60267 14.1918 4.784C13.7011 4.96533 13.2851 5.20533 12.9438 5.504L12.4318 4.656C12.8584 4.29333 13.3704 4.016 13.9678 3.824C14.5651 3.62133 15.1944 3.52 15.8558 3.52C16.9438 3.52 17.7811 3.792 18.3678 4.336C18.9651 4.86933 19.2638 5.68533 19.2638 6.784V12H18.1758ZM15.2798 12.08C14.6504 12.08 14.1011 11.9787 13.6318 11.776C13.1731 11.5627 12.8211 11.2747 12.5758 10.912C12.3304 10.5387 12.2078 10.112 12.2078 9.632C12.2078 9.19467 12.3091 8.8 12.5118 8.448C12.7251 8.08533 13.0664 7.79733 13.5358 7.584C14.0158 7.36 14.6558 7.248 15.4557 7.248H18.3518V8.096H15.4878C14.6771 8.096 14.1118 8.24 13.7918 8.528C13.4824 8.816 13.3278 9.17333 13.3278 9.6C13.3278 10.08 13.5144 10.464 13.8878 10.752C14.2611 11.04 14.7838 11.184 15.4557 11.184C16.0958 11.184 16.6451 11.04 17.1038 10.752C17.5731 10.4533 17.9144 10.0267 18.1278 9.472L18.3838 10.256C18.1704 10.8107 17.7971 11.2533 17.2638 11.584C16.7411 11.9147 16.0798 12.08 15.2798 12.08ZM24.372 12.096C25.0653 12.096 25.6893 11.9893 26.244 11.776C26.8093 11.5627 27.2573 11.2693 27.588 10.896C27.9187 10.512 28.084 10.0693 28.084 9.568C28.084 8.928 27.812 8.42133 27.268 8.048C26.7347 7.67467 25.988 7.488 25.028 7.488L24.98 7.792C25.524 7.792 26.0093 7.70667 26.436 7.536C26.8627 7.36533 27.204 7.12533 27.46 6.816C27.716 6.50667 27.844 6.144 27.844 5.728C27.844 5.25867 27.684 4.85867 27.364 4.528C27.044 4.18667 26.612 3.92533 26.068 3.744C25.5347 3.56267 24.932 3.48267 24.26 3.504C23.7693 3.504 23.2787 3.57333 22.788 3.712C22.308 3.84 21.8227 4.032 21.332 4.288L21.652 5.168C22.0893 4.944 22.532 4.77867 22.98 4.672C23.428 4.55467 23.86 4.49067 24.276 4.48C24.7347 4.48 25.1453 4.53333 25.508 4.64C25.8707 4.74667 26.1533 4.90667 26.356 5.12C26.5693 5.33333 26.676 5.58933 26.676 5.888C26.676 6.16533 26.5853 6.40533 26.404 6.608C26.2333 6.81067 25.988 6.96533 25.668 7.072C25.348 7.17867 24.98 7.232 24.564 7.232H23.204V8.064H24.644C25.348 8.064 25.9027 8.192 26.308 8.448C26.7133 8.69333 26.916 9.04 26.916 9.488C26.916 9.79733 26.8093 10.0747 26.596 10.32C26.3827 10.5653 26.084 10.7573 25.7 10.896C25.316 11.0347 24.8627 11.1093 24.34 11.12C23.8173 11.12 23.2893 11.0453 22.756 10.896C22.2227 10.736 21.7533 10.5067 21.348 10.208L20.98 11.056C21.4387 11.408 21.9667 11.6693 22.564 11.84C23.1613 12.0107 23.764 12.096 24.372 12.096ZM35.8789 12V10.144L35.8309 9.84V6.736C35.8309 6.02133 35.6282 5.472 35.2229 5.088C34.8282 4.704 34.2362 4.512 33.4469 4.512C32.9029 4.512 32.3855 4.60267 31.8949 4.784C31.4042 4.96533 30.9882 5.20533 30.6469 5.504L30.1349 4.656C30.5615 4.29333 31.0735 4.016 31.6709 3.824C32.2682 3.62133 32.8975 3.52 33.5589 3.52C34.6469 3.52 35.4842 3.792 36.0709 4.336C36.6682 4.86933 36.9669 5.68533 36.9669 6.784V12H35.8789ZM32.9829 12.08C32.3535 12.08 31.8042 11.9787 31.3349 11.776C30.8762 11.5627 30.5242 11.2747 30.2789 10.912C30.0335 10.5387 29.9109 10.112 29.9109 9.632C29.9109 9.19467 30.0122 8.8 30.2149 8.448C30.4282 8.08533 30.7695 7.79733 31.2389 7.584C31.7189 7.36 32.3589 7.248 33.1589 7.248H36.0549V8.096H33.1909C32.3802 8.096 31.8149 8.24 31.4949 8.528C31.1855 8.816 31.0309 9.17333 31.0309 9.6C31.0309 10.08 31.2175 10.464 31.5909 10.752C31.9642 11.04 32.4869 11.184 33.1589 11.184C33.7989 11.184 34.3482 11.04 34.8069 10.752C35.2762 10.4533 35.6175 10.0267 35.8309 9.472L36.0869 10.256C35.8735 10.8107 35.5002 11.2533 34.9669 11.584C34.4442 11.9147 33.7829 12.08 32.9829 12.08ZM45.751 11.456V4.592H41.703L41.607 6.464C41.5857 7.02933 41.5483 7.584 41.495 8.128C41.4523 8.672 41.3723 9.17333 41.255 9.632C41.1483 10.08 40.9937 10.448 40.791 10.736C40.5883 11.0133 40.327 11.1733 40.007 11.216L38.871 11.008C39.2017 11.0187 39.4737 10.9013 39.687 10.656C39.9003 10.4 40.0657 10.0533 40.183 9.616C40.3003 9.17867 40.3857 8.68267 40.439 8.128C40.4923 7.56267 40.535 6.98667 40.567 6.4L40.679 3.6H46.887V11.456H45.751ZM38.519 14.032V11.008H48.199V14.032H47.127V12H39.591V14.032H38.519Z" fill="#7859CF"/>
</svg>
