<svg width="62" height="16" viewBox="0 0 62 16" fill="none" xmlns="http://www.w3.org/2000/svg">
<path d="M0.00518763 12V0.799999H4.66119C5.84519 0.799999 6.77319 1.04533 7.44519 1.536C8.12785 2.016 8.46919 2.72533 8.46919 3.664C8.46919 4.592 8.14385 5.296 7.49319 5.776C6.84252 6.24533 5.98919 6.48 4.93319 6.48L5.20519 6.08C6.45319 6.08 7.40252 6.32533 8.05319 6.816C8.70385 7.30667 9.02919 8.02667 9.02919 8.976C9.02919 9.936 8.68785 10.6827 8.00519 11.216C7.33319 11.7387 6.31985 12 4.96519 12H0.00518763ZM1.17319 11.056H4.96519C5.91452 11.056 6.63452 10.88 7.12519 10.528C7.61585 10.176 7.86119 9.632 7.86119 8.896C7.86119 8.17067 7.61585 7.63733 7.12519 7.296C6.63452 6.95467 5.91452 6.784 4.96519 6.784H1.17319V11.056ZM1.17319 5.872H4.59719C5.46119 5.872 6.12252 5.70133 6.58119 5.36C7.05052 5.008 7.28519 4.49067 7.28519 3.808C7.28519 3.12533 7.05052 2.61333 6.58119 2.272C6.12252 1.92 5.46119 1.744 4.59719 1.744H1.17319V5.872ZM11.7176 12V3.6H19.2696V12H18.1336V4.288L18.4216 4.592H12.5656L12.8536 4.288V12H11.7176ZM26.0988 12.08C25.2241 12.08 24.4561 11.8987 23.7948 11.536C23.1335 11.1627 22.6161 10.656 22.2428 10.016C21.8695 9.36533 21.6828 8.624 21.6828 7.792C21.6828 6.96 21.8588 6.224 22.2108 5.584C22.5735 4.944 23.0641 4.44267 23.6828 4.08C24.3121 3.70667 25.0161 3.52 25.7948 3.52C26.5841 3.52 27.2828 3.70133 27.8908 4.064C28.5095 4.416 28.9948 4.91733 29.3468 5.568C29.6988 6.208 29.8748 6.94933 29.8748 7.792C29.8748 7.84533 29.8695 7.904 29.8588 7.968C29.8588 8.02133 29.8588 8.08 29.8588 8.144H22.5468V7.296H29.2508L28.8028 7.632C28.8028 7.024 28.6695 6.48533 28.4028 6.016C28.1468 5.536 27.7948 5.16267 27.3468 4.896C26.8988 4.62933 26.3815 4.496 25.7948 4.496C25.2188 4.496 24.7015 4.62933 24.2428 4.896C23.7841 5.16267 23.4268 5.536 23.1708 6.016C22.9148 6.496 22.7868 7.04533 22.7868 7.664V7.84C22.7868 8.48 22.9255 9.04533 23.2028 9.536C23.4908 10.016 23.8855 10.3947 24.3868 10.672C24.8988 10.9387 25.4801 11.072 26.1308 11.072C26.6428 11.072 27.1175 10.9813 27.5548 10.8C28.0028 10.6187 28.3868 10.3413 28.7068 9.968L29.3468 10.704C28.9735 11.152 28.5041 11.4933 27.9388 11.728C27.3841 11.9627 26.7708 12.08 26.0988 12.08ZM36.7254 12.08C36.0001 12.08 35.3441 11.9147 34.7574 11.584C34.1708 11.2427 33.7014 10.7573 33.3494 10.128C33.0081 9.488 32.8374 8.70933 32.8374 7.792C32.8374 6.87467 33.0081 6.10133 33.3494 5.472C33.6908 4.832 34.1548 4.34667 34.7414 4.016C35.3281 3.68533 35.9894 3.52 36.7254 3.52C37.5254 3.52 38.2401 3.70133 38.8694 4.064C39.5094 4.416 40.0108 4.91733 40.3734 5.568C40.7361 6.208 40.9174 6.94933 40.9174 7.792C40.9174 8.64533 40.7361 9.392 40.3734 10.032C40.0108 10.672 39.5094 11.1733 38.8694 11.536C38.2401 11.8987 37.5254 12.08 36.7254 12.08ZM32.3894 15.104V3.6H33.4774V6.128L33.3654 7.808L33.5254 9.504V15.104H32.3894ZM36.6454 11.072C37.2428 11.072 37.7761 10.9387 38.2454 10.672C38.7148 10.3947 39.0881 10.0107 39.3654 9.52C39.6428 9.01867 39.7814 8.44267 39.7814 7.792C39.7814 7.14133 39.6428 6.57067 39.3654 6.08C39.0881 5.58933 38.7148 5.20533 38.2454 4.928C37.7761 4.65067 37.2428 4.512 36.6454 4.512C36.0481 4.512 35.5094 4.65067 35.0294 4.928C34.5601 5.20533 34.1868 5.58933 33.9094 6.08C33.6428 6.57067 33.5094 7.14133 33.5094 7.792C33.5094 8.44267 33.6428 9.01867 33.9094 9.52C34.1868 10.0107 34.5601 10.3947 35.0294 10.672C35.5094 10.9387 36.0481 11.072 36.6454 11.072ZM46.9582 12.08C46.0835 12.08 45.3155 11.8987 44.6542 11.536C43.9929 11.1627 43.4755 10.656 43.1022 10.016C42.7289 9.36533 42.5422 8.624 42.5422 7.792C42.5422 6.96 42.7182 6.224 43.0702 5.584C43.4329 4.944 43.9235 4.44267 44.5422 4.08C45.1715 3.70667 45.8755 3.52 46.6542 3.52C47.4435 3.52 48.1422 3.70133 48.7502 4.064C49.3689 4.416 49.8542 4.91733 50.2062 5.568C50.5582 6.208 50.7342 6.94933 50.7342 7.792C50.7342 7.84533 50.7289 7.904 50.7182 7.968C50.7182 8.02133 50.7182 8.08 50.7182 8.144H43.4062V7.296H50.1102L49.6622 7.632C49.6622 7.024 49.5289 6.48533 49.2622 6.016C49.0062 5.536 48.6542 5.16267 48.2062 4.896C47.7582 4.62933 47.2409 4.496 46.6542 4.496C46.0782 4.496 45.5609 4.62933 45.1022 4.896C44.6435 5.16267 44.2862 5.536 44.0302 6.016C43.7742 6.496 43.6462 7.04533 43.6462 7.664V7.84C43.6462 8.48 43.7849 9.04533 44.0622 9.536C44.3502 10.016 44.7449 10.3947 45.2462 10.672C45.7582 10.9387 46.3395 11.072 46.9902 11.072C47.5022 11.072 47.9769 10.9813 48.4142 10.8C48.8622 10.6187 49.2462 10.3413 49.5662 9.968L50.2062 10.704C49.8329 11.152 49.3635 11.4933 48.7982 11.728C48.2435 11.9627 47.6302 12.08 46.9582 12.08ZM48.0782 1.92C47.8969 1.92 47.7369 1.856 47.5982 1.728C47.4595 1.6 47.3902 1.43467 47.3902 1.232C47.3902 1.02933 47.4595 0.863999 47.5982 0.735999C47.7369 0.607999 47.8969 0.544 48.0782 0.544C48.2702 0.544 48.4302 0.607999 48.5582 0.735999C48.6969 0.863999 48.7662 1.02933 48.7662 1.232C48.7662 1.43467 48.6969 1.6 48.5582 1.728C48.4302 1.856 48.2702 1.92 48.0782 1.92ZM45.2302 1.92C45.0382 1.92 44.8729 1.856 44.7342 1.728C44.6062 1.6 44.5422 1.43467 44.5422 1.232C44.5422 1.02933 44.6062 0.863999 44.7342 0.735999C44.8729 0.607999 45.0382 0.544 45.2302 0.544C45.4115 0.544 45.5715 0.607999 45.7102 0.735999C45.8489 0.863999 45.9182 1.02933 45.9182 1.232C45.9182 1.43467 45.8489 1.6 45.7102 1.728C45.5715 1.856 45.4115 1.92 45.2302 1.92ZM58.8369 11.456V4.592H54.7889L54.6929 6.464C54.6716 7.02933 54.6343 7.584 54.5809 8.128C54.5383 8.672 54.4583 9.17333 54.3409 9.632C54.2343 10.08 54.0796 10.448 53.8769 10.736C53.6743 11.0133 53.4129 11.1733 53.0929 11.216L51.9569 11.008C52.2876 11.0187 52.5596 10.9013 52.7729 10.656C52.9863 10.4 53.1516 10.0533 53.2689 9.616C53.3863 9.17867 53.4716 8.68267 53.5249 8.128C53.5783 7.56267 53.6209 6.98667 53.6529 6.4L53.7649 3.6H59.9729V11.456H58.8369ZM51.6049 14.032V11.008H61.2849V14.032H60.2129V12H52.6769V14.032H51.6049Z" fill="#7859CF"/>
</svg>
